<?xml version="1.0" encoding="UTF-8" standalone="no"?>
<!-- Created with Inkscape (http://www.inkscape.org/) -->

<svg
   xmlns:dc="http://purl.org/dc/elements/1.1/"
   xmlns:cc="http://creativecommons.org/ns#"
   xmlns:rdf="http://www.w3.org/1999/02/22-rdf-syntax-ns#"
   xmlns:svg="http://www.w3.org/2000/svg"
   xmlns="http://www.w3.org/2000/svg"
   xmlns:xlink="http://www.w3.org/1999/xlink"
   xmlns:sodipodi="http://sodipodi.sourceforge.net/DTD/sodipodi-0.dtd"
   xmlns:inkscape="http://www.inkscape.org/namespaces/inkscape"
   width="80.278381mm"
   height="10.955866mm"
   viewBox="0 0 80.278381 10.955866"
   version="1.1"
   id="svg8"
   inkscape:version="0.92.4 (5da689c313, 2019-01-14)"
   sodipodi:docname="jomichaelis_white.svg">
  <defs
     id="defs2">
    <linearGradient
       id="linearGradient6229"
       inkscape:collect="always">
      <stop
         id="stop6225"
         offset="0"
         style="stop-color:#433df2;stop-opacity:1" />
      <stop
         id="stop6227"
         offset="1"
         style="stop-color:#00dff2;stop-opacity:1" />
    </linearGradient>
    <linearGradient
       inkscape:collect="always"
       id="linearGradient6016">
      <stop
         style="stop-color:#433df2;stop-opacity:1;"
         offset="0"
         id="stop6012" />
      <stop
         style="stop-color:#433df2;stop-opacity:0;"
         offset="1"
         id="stop6014" />
    </linearGradient>
    <linearGradient
       inkscape:collect="always"
       xlink:href="#linearGradient6016"
       id="linearGradient6020"
       x1="38.4347"
       y1="44.964584"
       x2="73.267159"
       y2="44.964584"
       gradientUnits="userSpaceOnUse" />
    <linearGradient
       inkscape:collect="always"
       xlink:href="#linearGradient6229"
       id="linearGradient6223"
       gradientUnits="userSpaceOnUse"
       x1="38.754082"
       y1="50.310226"
       x2="72.964577"
       y2="39.61895" />
  </defs>
  <sodipodi:namedview
     id="base"
     pagecolor="#000000"
     bordercolor="#666666"
     borderopacity="1.0"
     inkscape:pageopacity="0.0"
     inkscape:pageshadow="2"
     inkscape:zoom="4"
     inkscape:cx="138.77603"
     inkscape:cy="68.795297"
     inkscape:document-units="mm"
     inkscape:current-layer="text6249"
     showgrid="false"
     inkscape:window-width="3840"
     inkscape:window-height="2035"
     inkscape:window-x="5987"
     inkscape:window-y="-13"
     inkscape:window-maximized="1" />
  <metadata
     id="metadata5">
    <rdf:RDF>
      <cc:Work
         rdf:about="">
        <dc:format>image/svg+xml</dc:format>
        <dc:type
           rdf:resource="http://purl.org/dc/dcmitype/StillImage" />
        <dc:title></dc:title>
      </cc:Work>
    </rdf:RDF>
  </metadata>
  <g
     inkscape:label="Ebene 1"
     inkscape:groupmode="layer"
     id="layer1"
     transform="translate(-38.434701,-39.486653)">
    <path
       style="fill:url(#linearGradient6223);fill-opacity:1;stroke:none;stroke-width:0.26458332px;stroke-linecap:butt;stroke-linejoin:miter;stroke-opacity:1"
       d="M 49.444862,39.619443 38.754081,50.310227 h 24.321527 l 9.888971,-10.691276 z"
       id="path4524"
       inkscape:connector-curvature="0"
       sodipodi:nodetypes="ccccc" />
    <g
       aria-label="jomichaelis"
       inkscape:transform-center-x="-1.1660161e-06"
       inkscape:transform-center-y="0.11398465"
       style="font-style:normal;font-weight:normal;font-size:8.45597553px;line-height:1.25;font-family:sans-serif;letter-spacing:0px;word-spacing:0px;fill:#000000;fill-opacity:1;stroke:none;stroke-width:0.21139939;stroke-opacity:1"
       id="text6249">
      <path
         d="m 73.130089,49.837889 q -0.437663,0 -0.726685,-0.103223 v -0.767974 q 0.280764,0.07432 0.573916,0.07432 0.619334,0 0.619334,-0.701912 v -5.099184 h 0.97029 v 5.165246 q 0,0.706041 -0.3716,1.069384 -0.367472,0.363343 -1.065255,0.363343 z M 73.53885,42.03015 q 0,-0.260121 0.140382,-0.400503 0.144511,-0.140383 0.408761,-0.140383 0.255991,0 0.396373,0.140383 0.144512,0.140382 0.144512,0.400503 0,0.247733 -0.144512,0.392245 -0.140382,0.140382 -0.396373,0.140382 -0.26425,0 -0.408761,-0.140382 Q 73.53885,42.277883 73.53885,42.03015 Z"
         style="font-style:normal;font-variant:normal;font-weight:600;font-stretch:normal;font-size:8.45597553px;font-family:'Open Sans';-inkscape-font-specification:'Open Sans Semi-Bold';letter-spacing:0px;fill:#ffffff;fill-opacity:1;stroke:none;stroke-width:0.21139939;stroke-opacity:1"
         id="path849" />
      <path
         d="m 80.008827,45.514936 q 0,1.118931 -0.573916,1.746523 -0.573917,0.627592 -1.597882,0.627592 -0.639979,0 -1.131318,-0.289023 -0.491338,-0.289023 -0.755587,-0.829908 -0.264249,-0.540885 -0.264249,-1.255184 0,-1.110672 0.569787,-1.734135 0.569787,-0.623463 1.60614,-0.623463 0.990935,0 1.56898,0.639978 0.578045,0.63585 0.578045,1.71762 z m -3.32376,0 q 0,1.581367 1.168477,1.581367 1.15609,0 1.15609,-1.581367 0,-1.564851 -1.164348,-1.564851 -0.611076,0 -0.887712,0.404632 -0.272507,0.404632 -0.272507,1.160219 z"
         style="font-style:normal;font-variant:normal;font-weight:600;font-stretch:normal;font-size:8.45597553px;font-family:'Open Sans';-inkscape-font-specification:'Open Sans Semi-Bold';letter-spacing:0px;fill:#fffffb;fill-opacity:1;stroke:none;stroke-width:0.21139939;stroke-opacity:1"
         id="path851" />
      <path
         d="m 84.975887,47.806473 h -0.974419 v -2.815906 q 0,-0.52437 -0.198187,-0.780361 -0.198187,-0.260121 -0.619334,-0.260121 -0.56153,0 -0.825779,0.367472 -0.260121,0.363343 -0.260121,1.213895 v 2.275021 h -0.97029 v -4.566557 h 0.759717 l 0.136253,0.598689 h 0.04955 q 0.189929,-0.326182 0.549143,-0.503725 0.363343,-0.177542 0.796877,-0.177542 1.052868,0 1.395566,0.718427 h 0.06606 q 0.202316,-0.338569 0.569788,-0.528498 0.367471,-0.189929 0.842294,-0.189929 0.817521,0 1.189122,0.412889 0.375729,0.41289 0.375729,1.259313 v 2.976933 h -0.97029 v -2.815906 q 0,-0.52437 -0.202316,-0.780361 -0.198187,-0.260121 -0.619334,-0.260121 -0.565659,0 -0.829908,0.355085 -0.26012,0.350956 -0.26012,1.081771 z"
         style="font-size:8.45597553px;letter-spacing:0px;word-spacing:0px;fill:#fffffb;fill-opacity:1;stroke:none;stroke-width:0.21139939;stroke-opacity:1"
         id="path853" />
      <path
         d="m 90.190681,47.806473 h -0.97029 v -4.566557 h 0.97029 z M 89.162586,42.03015 q 0,-0.260121 0.140382,-0.400503 0.144512,-0.140383 0.408761,-0.140383 0.255991,0 0.396374,0.140383 0.144511,0.140382 0.144511,0.400503 0,0.247733 -0.144511,0.392245 -0.140383,0.140382 -0.396374,0.140382 -0.264249,0 -0.408761,-0.140382 -0.140382,-0.144512 -0.140382,-0.392245 z"
         style="font-size:8.45597553px;letter-spacing:0px;word-spacing:0px;fill:#fffffb;fill-opacity:1;stroke:none;stroke-width:0.21139939;stroke-opacity:1"
         id="path855" />
      <path
         d="m 93.423605,47.889051 q -1.036352,0 -1.577238,-0.602819 -0.536756,-0.606947 -0.536756,-1.738264 0,-1.151962 0.56153,-1.771296 0.565658,-0.619334 1.630913,-0.619334 0.722557,0 1.300602,0.268378 l -0.293152,0.780361 q -0.615205,-0.239476 -1.015708,-0.239476 -1.184992,0 -1.184992,1.573109 0,0.767974 0.293151,1.15609 0.29728,0.383987 0.867068,0.383987 0.648236,0 1.226282,-0.322053 v 0.846423 q -0.260121,0.152769 -0.557401,0.218831 -0.293152,0.06606 -0.714299,0.06606 z"
         style="font-size:8.45597553px;letter-spacing:0px;word-spacing:0px;fill:#fffffb;fill-opacity:1;stroke:none;stroke-width:0.21139939;stroke-opacity:1"
         id="path857" />
      <path
         d="m 99.794488,47.806473 h -0.974419 v -2.807648 q 0,-0.528499 -0.214702,-0.788619 -0.210574,-0.260121 -0.67301,-0.260121 -0.611076,0 -0.900099,0.367472 -0.284894,0.363343 -0.284894,1.222153 v 2.266763 h -0.97029 v -6.42456 h 0.97029 v 1.630913 q 0,0.392245 -0.04955,0.838166 h 0.06193 q 0.198187,-0.330312 0.549143,-0.511983 0.355085,-0.181671 0.825779,-0.181671 1.659815,0 1.659815,1.672202 z"
         style="font-size:8.45597553px;letter-spacing:0px;word-spacing:0px;fill:#fffffb;fill-opacity:1;stroke:none;stroke-width:0.21139939;stroke-opacity:1"
         id="path859" />
      <path
         d="m 104.00183,47.806473 -0.19406,-0.63585 h -0.033 q -0.33031,0.417018 -0.66475,0.569787 -0.33444,0.148641 -0.85881,0.148641 -0.67301,0 -1.05287,-0.363343 -0.37573,-0.363343 -0.37573,-1.028095 0,-0.706041 0.52437,-1.065254 0.52437,-0.359214 1.59789,-0.392245 l 0.78861,-0.02477 v -0.243605 q 0,-0.437662 -0.20644,-0.652365 -0.20232,-0.218831 -0.63172,-0.218831 -0.35096,0 -0.67301,0.103222 -0.32206,0.103222 -0.61934,0.243605 l -0.31379,-0.693654 q 0.3716,-0.194058 0.81339,-0.293152 0.44179,-0.103222 0.83404,-0.103222 0.87119,0 1.31299,0.379858 0.44592,0.379858 0.44592,1.193251 v 3.076026 z m -1.44511,-0.660623 q 0.5285,0 0.84642,-0.293152 0.32206,-0.29728 0.32206,-0.829908 v -0.396373 l -0.58631,0.02477 q -0.68539,0.02477 -0.99919,0.231218 -0.30967,0.202316 -0.30967,0.623463 0,0.305538 0.18168,0.474823 0.18167,0.165156 0.54501,0.165156 z"
         style="font-size:8.45597553px;letter-spacing:0px;word-spacing:0px;fill:#fffffb;fill-opacity:1;stroke:none;stroke-width:0.21139939;stroke-opacity:1"
         id="path861" />
      <path
         d="m 108.04402,47.889051 q -1.06525,0 -1.66807,-0.619334 -0.59869,-0.623464 -0.59869,-1.713492 0,-1.11893 0.5574,-1.758909 0.5574,-0.639978 1.53182,-0.639978 0.90423,0 1.42859,0.549143 0.52437,0.549143 0.52437,1.511175 v 0.52437 h -3.04299 q 0.0206,0.664752 0.35921,1.023965 0.33857,0.355085 0.95378,0.355085 0.40463,0 0.75146,-0.07432 0.35095,-0.07845 0.75146,-0.255991 v 0.788619 q -0.35509,0.169284 -0.71843,0.239475 -0.36335,0.07019 -0.82991,0.07019 z m -0.17754,-3.99677 q -0.46244,0 -0.7432,0.293151 -0.27664,0.293152 -0.33032,0.854682 h 2.07271 q -0.008,-0.565659 -0.27251,-0.854682 -0.26425,-0.293151 -0.72668,-0.293151 z"
         style="font-size:8.45597553px;letter-spacing:0px;word-spacing:0px;fill:#fffffb;fill-opacity:1;stroke:none;stroke-width:0.21139939;stroke-opacity:1"
         id="path863" />
      <path
         d="m 111.89215,47.806473 h -0.97029 v -6.42456 h 0.97029 z"
         style="font-size:8.45597553px;letter-spacing:0px;word-spacing:0px;fill:#fffffb;fill-opacity:1;stroke:none;stroke-width:0.21139939;stroke-opacity:1"
         id="path865" />
      <path
         d="m 114.25388,47.806473 h -0.97029 v -4.566557 h 0.97029 z m -1.0281,-5.776323 q 0,-0.260121 0.14038,-0.400503 0.14451,-0.140383 0.40876,-0.140383 0.256,0 0.39638,0.140383 0.14451,0.140382 0.14451,0.400503 0,0.247733 -0.14451,0.392245 -0.14038,0.140382 -0.39638,0.140382 -0.26425,0 -0.40876,-0.140382 -0.14038,-0.144512 -0.14038,-0.392245 z"
         style="font-size:8.45597553px;letter-spacing:0px;word-spacing:0px;fill:#fffffb;fill-opacity:1;stroke:none;stroke-width:0.21139939;stroke-opacity:1"
         id="path867" />
      <path
         d="m 118.71308,46.505871 q 0,0.668881 -0.48721,1.028095 -0.48721,0.355085 -1.39556,0.355085 -0.91249,0 -1.46576,-0.276636 v -0.838166 q 0.80513,0.371601 1.49879,0.371601 0.89597,0 0.89597,-0.540885 0,-0.173414 -0.0991,-0.289023 -0.0991,-0.115609 -0.32618,-0.239476 -0.22709,-0.123867 -0.63172,-0.280765 -0.78862,-0.305538 -1.06938,-0.611076 -0.27664,-0.305538 -0.27664,-0.792748 0,-0.586303 0.4707,-0.908357 0.47482,-0.326182 1.28821,-0.326182 0.80514,0 1.52356,0.326182 l -0.31379,0.730815 q -0.73908,-0.305538 -1.2428,-0.305538 -0.76797,0 -0.76797,0.437662 0,0.214703 0.19818,0.363343 0.20232,0.14864 0.87533,0.408761 0.56566,0.218831 0.82165,0.400502 0.25599,0.181672 0.37986,0.421148 0.12386,0.235347 0.12386,0.565658 z"
         style="font-size:8.45597553px;letter-spacing:0px;word-spacing:0px;fill:#fffffb;fill-opacity:1;stroke:none;stroke-width:0.21139939;stroke-opacity:1"
         id="path869" />
    </g>
  </g>
</svg>
